# xmcd CD database file
#
# Track frame offsets:
#	150
#	17762
#	43232
#	58875
#	75875
#	104000
#	122595
#	147412
#	166515
#	182490
#	201835
#
# Disc length: 2998 seconds
#
# Revision: 0
# Processed by: cddbd v1.5PL3 Copyright (c) Steve Scherf et al.
# Submitted via: CDex 1.51
#
DISCID=8f0bb40b
DTITLE=原田　知世 - Next Door
DYEAR=1986
DGENRE=Pop
TTITLE0=バックギャモンは負けない
TTITLE1=異国の娼婦
TTITLE2=月のリグレット
TTITLE3=落書きだらけの青春時代
TTITLE4=イニシャルを探して
TTITLE5=雨のプラネタリウム
TTITLE6=僕たちのジングルベル
TTITLE7=アップルティーには早いけど
TTITLE8=葡萄畑の走り方
TTITLE9=右手で抱いて
TTITLE10=赤いパンプス
EXTD=YEAR: 1986
EXTT0=
EXTT1=
EXTT2=
EXTT3=
EXTT4=
EXTT5=
EXTT6=
EXTT7=
EXTT8=
EXTT9=
EXTT10=
PLAYORDER=
